<?xml version="1.0" encoding="utf-8"?>
<!-- Generator: Adobe Illustrator 22.1.0, SVG Export Plug-In . SVG Version: 6.00 Build 0)  -->
<svg version="1.1" id="Layer_1" xmlns="http://www.w3.org/2000/svg" xmlns:xlink="http://www.w3.org/1999/xlink" x="0px" y="0px"
	 viewBox="0 0 38.7 37.7" style="enable-background:new 0 0 38.7 37.7;" xml:space="preserve">
<style type="text/css">
	.st0{fill:#FFFFFF;}
	.st1{fill:#2F9CD7;}
	.st2{fill:none;stroke:#1C5D2F;stroke-miterlimit:10;}
</style>
<g id="qM6V5n_1_">
	<g>
		<path class="st0" d="M19.1,37.2c3.3,0,6.5,0.1,9.8,0c1.6-0.1,3.2-0.4,4.8-0.9c1-0.3,1.6-1.1,1.5-2.3C35.1,33,35,32,34.8,30.9
			c-1.1-5.7-6-9.8-11.9-9.8c-2.5,0-5,0-7.5,0c-1,0-2.1,0.2-3.1,0.4C7.1,23,3.5,28,3.5,33.6c0,2,0.5,2.6,2.4,3.1
			C7,37,8.2,37.2,9.4,37.2C12.6,37.3,15.8,37.2,19.1,37.2z M10,10c0,5.3,4.2,9.6,9.4,9.6c5.2,0,9.3-4.4,9.3-9.7
			c0-5.3-4.2-9.5-9.3-9.5C14.2,0.4,10,4.7,10,10z"/>
		<path class="st1" d="M19.1,37.2c-3.2,0-6.5,0-9.7,0c-1.2,0-2.3-0.2-3.5-0.5c-1.9-0.5-2.4-1.1-2.4-3.1c0-5.6,3.6-10.6,8.8-12
			c1-0.3,2.1-0.4,3.1-0.4c2.5-0.1,5,0,7.5,0c5.8,0,10.8,4.1,11.9,9.8c0.2,1,0.2,2.1,0.3,3.2c0.1,1.1-0.4,2-1.5,2.3
			c-1.6,0.4-3.2,0.8-4.8,0.9C25.6,37.3,22.3,37.2,19.1,37.2z"/>
		<path class="st1" d="M10,10c0-5.3,4.2-9.6,9.3-9.6c5.1,0,9.3,4.3,9.3,9.5c0,5.3-4.1,9.6-9.3,9.7C14.2,19.6,10,15.3,10,10z"/>
	</g>
</g>
</svg>
