<?xml version="1.0" encoding="utf-8"?>
<!-- Generator: Adobe Illustrator 22.1.0, SVG Export Plug-In . SVG Version: 6.00 Build 0)  -->
<svg version="1.1" id="Layer_1" xmlns="http://www.w3.org/2000/svg" xmlns:xlink="http://www.w3.org/1999/xlink" x="0px" y="0px"
	 viewBox="0 0 38.7 37.7" style="enable-background:new 0 0 38.7 37.7;" xml:space="preserve">
<style type="text/css">
	.st0{fill:#ED1C24;}
	.st1{fill:none;stroke:#ED1C24;stroke-miterlimit:10;}
	.st2{fill:#56C3BF;}
	.st3{fill:#FFFFFF;}
	.st4{fill:#2F9CD7;}
	.st5{fill:#F69F27;}
</style>
<g>
	<g>
		<g>
			<g>
				<path class="st5" d="M0.8,33.6c-0.7-0.8-0.7-2.1,0.1-2.8l9.1-8.3c0.8-0.7,2.1-0.7,2.8,0.1l2.6,2.9c0.7,0.8,0.7,2.1-0.1,2.8
					l-9.1,8.3c-0.8,0.7-2.1,0.7-2.8-0.1L0.8,33.6z"/>
			</g>
		</g>
	</g>
	<g>
		<path class="st5" d="M24.9,0.3c1.5,0,2.9,0.2,4.4,0.7c7,2.4,10.7,10.1,8.3,17.1c-1.9,5.6-7.1,9-12.7,9c-1.5,0-2.9-0.2-4.4-0.7
			c-7-2.4-10.7-10.1-8.3-17.1C14.1,3.7,19.3,0.3,24.9,0.3 M24.9,3.9c-4.2,0-7.9,2.6-9.3,6.6C14.8,13,15,15.6,16.1,18
			c1.1,2.4,3.1,4.1,5.6,5c1,0.4,2.1,0.5,3.2,0.5c4.2,0,7.9-2.6,9.3-6.6c0.9-2.5,0.7-5.1-0.4-7.5c-1.1-2.4-3.1-4.1-5.6-5l0,0
			C27.1,4.1,26,3.9,24.9,3.9L24.9,3.9z"/>
	</g>
</g>
</svg>
