<?xml version="1.0" encoding="utf-8"?>
<!-- Generator: Adobe Illustrator 22.1.0, SVG Export Plug-In . SVG Version: 6.00 Build 0)  -->
<svg version="1.1" id="Layer_1" xmlns="http://www.w3.org/2000/svg" xmlns:xlink="http://www.w3.org/1999/xlink" x="0px" y="0px"
	 viewBox="0 0 38.7 37.7" style="enable-background:new 0 0 38.7 37.7;" xml:space="preserve">
<style type="text/css">
	.st0{fill:#ED1C24;}
	.st1{fill:none;stroke:#ED1C24;stroke-miterlimit:10;}
	.st2{fill:#56C3BF;}
	.st3{fill:#FFFFFF;}
	.st4{fill:#2F9CD7;}
	.st5{fill:none;stroke:#1C5D2F;stroke-miterlimit:10;}
</style>
<g id="XMLID_4_">
	<g>
		<path class="st0" d="M37.9,10.4c0.1,0.7,0.1,1.5,0,2.2c-0.7,5.9-4.7,9.4-8.3,12.7c-3.8,3.4-7.6,6.6-10.2,10.8
			c-2.8-4.2-6.8-7.4-10.9-11.2c-3.8-3.5-8.3-7.2-7.7-14.5C1.2,5.7,5,2,9.6,1.6c5.2-0.5,7.7,2.2,9.8,5c1.9-3,4.8-5.5,9.8-5
			C34.1,2.1,37.1,5.8,37.9,10.4z"/>
	</g>
	<g>
		<path class="st1" d="M37.9,10.4c0.1,0.7,0.1,1.5,0,2.2"/>
		<path class="st1" d="M37.9,10.4c-0.8-4.6-3.8-8.3-8.7-8.8c-4.9-0.5-7.9,2-9.8,5c-2.1-2.8-4.6-5.5-9.8-5C5,2,1.2,5.7,0.8,10.5
			c-0.6,7.3,3.9,11,7.7,14.5c4.1,3.8,8,6.9,10.9,11.2c2.7-4.2,6.4-7.3,10.2-10.8c3.6-3.3,7.7-6.8,8.3-12.7"/>
	</g>
</g>
<g>
</g>
</svg>
