<?xml version="1.0" encoding="utf-8"?>
<!-- Generator: Adobe Illustrator 22.1.0, SVG Export Plug-In . SVG Version: 6.00 Build 0)  -->
<svg version="1.1" id="Layer_1" xmlns="http://www.w3.org/2000/svg" xmlns:xlink="http://www.w3.org/1999/xlink" x="0px" y="0px"
	 viewBox="0 0 38.7 37.7" style="enable-background:new 0 0 38.7 37.7;" xml:space="preserve">
<style type="text/css">
	.st0{fill:#56C3BF;}
	.st1{fill:#FFFFFF;}
	.st2{fill:#2F9CD7;}
	.st3{fill:none;stroke:#1C5D2F;stroke-miterlimit:10;}
</style>
<symbol  id="Plus" viewBox="-32 -32 64 64">
	<polygon class="st0" points="5.1,17.1 -5.1,17.1 -5.1,5.1 -17.1,5.1 -17.1,-5.1 -5.1,-5.1 -5.1,-17.1 5.1,-17.1 5.1,-5.1 
		17.1,-5.1 17.1,5.1 5.1,5.1 	"/>
	<path class="st0" d="M0,32c-17.7,0-32-14.3-32-32c0-17.7,14.3-32,32-32S32-17.7,32,0C32,17.7,17.7,32,0,32z M0-27
		c-14.9,0-27,12.1-27,27c0,14.9,12.1,27,27,27S27,14.9,27,0C27-14.9,14.9-27,0-27z"/>
</symbol>
<use xlink:href="#Plus"  width="64" height="64" id="XMLID_29_" x="-32" y="-32" transform="matrix(0.576 0 0 -0.576 19.3333 19.0778)" style="overflow:visible;"/>
</svg>
